<?xml version="1.0" encoding="UTF-8"?>
<svg width="503px" height="505px" viewBox="0 0 503 505" version="1.1" xmlns="http://www.w3.org/2000/svg" xmlns:xlink="http://www.w3.org/1999/xlink">
    <title>A0</title>
    <g id="A0" stroke="none" stroke-width="1" fill="none" fill-rule="evenodd">
        <rect fill="#FFFFFF" x="0" y="0" width="503" height="505"></rect>
        <path d="M251.16,504.36 C325.048489,419.024277 383.318273,349.313405 429.573669,288.61687 C477.631223,225.516511 501.66,175.036225 501.66,129.363584 C501.66,54.8450657 448.796691,1.36 376.71036,1.36 C319.642014,1.36 275.188777,39.8211708 251.16,110.733955 C227.131223,39.8211708 182.677986,1.36 125.60964,1.36 C53.5233094,1.36 0.66,54.8450657 0.66,129.363584 C0.66,175.036225 24.688777,225.516511 72.7463309,288.61687 C119.001727,349.313405 177.271511,419.024277 251.16,504.36 Z" id="Path" stroke="#FF6464" fill="#FF6464" fill-rule="nonzero"></path>
        <path d="M250.66,475.36 C194.161312,410.502477 140.667874,345.044421 88.9775853,278.985832 C45.1009449,223.736831 21.66,169.088362 21.66,131.254807 C21.66,60.99249 73.9513386,24.36 125.040577,24.36 C203.17706,24.36 239.841102,116.241491 239.841102,171.490493 C239.841102,179.297417 242.846352,183.501145 250.66,183.501145 C258.473648,183.501145 261.478898,179.297417 261.478898,171.490493 C261.478898,116.241491 298.14294,24.36 376.279423,24.36 C427.368661,24.36 479.66,60.99249 479.66,131.254807 C479.66,169.088362 456.219055,223.736831 412.342415,278.985832 C360.652126,345.044421 307.158688,410.502477 250.66,475.36 Z" id="Path" fill="#FF6464" fill-rule="nonzero"></path>
    </g>
</svg>