<?xml version="1.0" encoding="UTF-8"?>
<svg width="3200px" height="600px" viewBox="0 0 3200 600" version="1.1" xmlns="http://www.w3.org/2000/svg" xmlns:xlink="http://www.w3.org/1999/xlink">
    <title>A0</title>
    <g id="A0" stroke="none" stroke-width="1" fill="none" fill-rule="evenodd">
        <rect fill="#FFFFFF" x="0" y="0" width="3200" height="600"></rect>
        <g id="ifn0042" transform="translate(2089.000000, 181.000000)" fill="#FF5F5F" fill-rule="nonzero">
            <path d="M66.94248,0.0109557946 C30.85764,0.508610581 0,34.4738815 0,78.4944333 C0,170.195622 87.252,222.311358 130.96908,240 L133.03224,240 C176.748,222.303396 264,170.187659 264,78.4944333 C264.00792,8.06101962 185.00724,-36.641651 132,40.3170123 C112.12476,11.458343 88.59312,-0.286309998 66.94248,0.0109557946 Z" id="Path"></path>
        </g>
        <path d="M236.3,451 L262.3,277.4 L329.9,451 L361.1,451 L432.3,277.4 L458.3,451 L536.3,451 L485.1,149.4 L407.5,149.4 L347.5,310.2 L287.1,149.4 L209.5,149.4 L158.3,451 L236.3,451 Z M757.5,451 L757.5,384.6 L664.3,384.6 L664.3,332.6 L752.3,332.6 L752.3,266.2 L664.3,266.2 L664.3,215.8 L757.5,215.8 L757.5,149.4 L585.9,149.4 L585.9,451 L757.5,451 Z M929.9,451 C950.7,451 970.1,446.866667 988.1,438.6 C1006.1,430.333333 1021.83333,419.266667 1035.3,405.4 C1048.76667,391.533333 1059.3,375.466667 1066.9,357.2 C1074.5,338.933333 1078.3,319.933333 1078.3,300.2 C1078.3,280.2 1074.43333,261.066667 1066.7,242.8 C1058.96667,224.533333 1048.36667,208.533333 1034.9,194.8 C1021.43333,181.066667 1005.7,170.066667 987.7,161.8 C969.7,153.533333 950.433333,149.4 929.9,149.4 L929.9,149.4 L813.9,149.4 L813.9,451 L929.9,451 Z M910.3,384.6 L892.3,384.6 L892.3,215.8 L910.3,215.8 C923.633333,215.8 935.633333,217.933333 946.3,222.2 C956.966667,226.466667 965.966667,232.333333 973.3,239.8 C980.633333,247.266667 986.3,256.2 990.3,266.6 C994.3,277 996.3,288.2 996.3,300.2 C996.3,312.466667 994.366667,323.733333 990.5,334 C986.633333,344.266667 981.033333,353.133333 973.7,360.6 C966.366667,368.066667 957.366667,373.933333 946.7,378.2 C936.033333,382.466667 923.9,384.6 910.3,384.6 L910.3,384.6 Z M1206.7,451 L1206.7,149.4 L1128.3,149.4 L1128.3,451 L1206.7,451 Z M1414.7,459.4 C1424.83333,459.4 1435.1,458.4 1445.5,456.4 C1455.9,454.4 1467.1,451.266667 1479.1,447 L1479.1,447 L1487.1,444.2 L1487.1,351.4 C1467.1,372.733333 1444.56667,383.4 1419.5,383.4 C1408.03333,383.4 1397.36667,381.266667 1387.5,377 C1377.63333,372.733333 1369.03333,366.866667 1361.7,359.4 C1354.36667,351.933333 1348.63333,343.133333 1344.5,333 C1340.36667,322.866667 1338.3,311.8 1338.3,299.8 C1338.3,288.066667 1340.36667,277.133333 1344.5,267 C1348.63333,256.866667 1354.3,248.133333 1361.5,240.8 C1368.7,233.466667 1377.3,227.666667 1387.3,223.4 C1397.3,219.133333 1408.16667,217 1419.9,217 C1446.56667,217 1468.96667,228.066667 1487.1,250.2 L1487.1,250.2 L1487.1,156.6 C1474.3,151.266667 1462.1,147.333333 1450.5,144.8 C1438.9,142.266667 1427.1,141 1415.1,141 C1394.03333,141 1373.9,144.933333 1354.7,152.8 C1335.5,160.666667 1318.63333,171.6 1304.1,185.6 C1289.56667,199.6 1277.96667,216.266667 1269.3,235.6 C1260.63333,254.933333 1256.3,276.2 1256.3,299.4 C1256.3,322.6 1260.7,344 1269.5,363.6 C1278.3,383.2 1289.96667,400.133333 1304.5,414.4 C1319.03333,428.666667 1335.83333,439.733333 1354.9,447.6 C1373.96667,455.466667 1393.9,459.4 1414.7,459.4 Z M1591.5,451 L1609.5,398.6 L1721.5,398.6 L1739.5,451 L1823.1,451 L1708.3,149.4 L1622.7,149.4 L1507.9,451 L1591.5,451 Z M1700.7,339 L1630.3,339 L1665.5,238.6 L1700.7,339 Z M2029.9,451 L2029.9,384.6 L1935.9,384.6 L1935.9,149.4 L1857.5,149.4 L1857.5,451 L2029.9,451 Z M2552.3,451 C2573.1,451 2592.5,446.866667 2610.5,438.6 C2628.5,430.333333 2644.23333,419.266667 2657.7,405.4 C2671.16667,391.533333 2681.7,375.466667 2689.3,357.2 C2696.9,338.933333 2700.7,319.933333 2700.7,300.2 C2700.7,280.2 2696.83333,261.066667 2689.1,242.8 C2681.36667,224.533333 2670.76667,208.533333 2657.3,194.8 C2643.83333,181.066667 2628.1,170.066667 2610.1,161.8 C2592.1,153.533333 2572.83333,149.4 2552.3,149.4 L2552.3,149.4 L2436.3,149.4 L2436.3,451 L2552.3,451 Z M2532.7,384.6 L2514.7,384.6 L2514.7,215.8 L2532.7,215.8 C2546.03333,215.8 2558.03333,217.933333 2568.7,222.2 C2579.36667,226.466667 2588.36667,232.333333 2595.7,239.8 C2603.03333,247.266667 2608.7,256.2 2612.7,266.6 C2616.7,277 2618.7,288.2 2618.7,300.2 C2618.7,312.466667 2616.76667,323.733333 2612.9,334 C2609.03333,344.266667 2603.43333,353.133333 2596.1,360.6 C2588.76667,368.066667 2579.76667,373.933333 2569.1,378.2 C2558.43333,382.466667 2546.3,384.6 2532.7,384.6 L2532.7,384.6 Z M2813.9,451 L2884.7,352.6 L2945.1,451 L3040.7,451 L2928.3,290.2 L3027.9,149.4 L2931.1,149.4 L2880.7,227.4 L2839.9,149.4 L2743.1,149.4 L2837.1,290.2 L2719.1,451 L2813.9,451 Z" id="MEDICAL_DX" fill="#2C2C2C" fill-rule="nonzero"></path>
    </g>
</svg>